<mxfile host="Electron" agent="Mozilla/5.0 (Windows NT 10.0; Win64; x64) AppleWebKit/537.36 (KHTML, like Gecko) draw.io/26.0.4 Chrome/128.0.6613.186 Electron/32.2.5 Safari/537.36" version="26.0.4">
  <diagram name="Page-1" id="sf3oTHZ_q0R4hkE-YJ8V">
    <mxGraphModel dx="683" dy="459" grid="1" gridSize="10" guides="1" tooltips="1" connect="1" arrows="1" fold="1" page="1" pageScale="1" pageWidth="827" pageHeight="1169" math="0" shadow="0">
      <root>
        <mxCell id="0" />
        <mxCell id="1" parent="0" />
        <mxCell id="EZBdUAOa5AHeZ3UiyKXo-2" value="MCU" style="rounded=1;whiteSpace=wrap;html=1;" vertex="1" parent="1">
          <mxGeometry x="220" y="220" width="80" height="160" as="geometry" />
        </mxCell>
        <mxCell id="EZBdUAOa5AHeZ3UiyKXo-3" value="TDC&lt;div&gt;Electrical&lt;/div&gt;" style="rounded=1;whiteSpace=wrap;html=1;" vertex="1" parent="1">
          <mxGeometry x="360" y="200" width="90" height="60" as="geometry" />
        </mxCell>
        <mxCell id="EZBdUAOa5AHeZ3UiyKXo-4" value="TDC&lt;div&gt;Optical&lt;/div&gt;" style="rounded=1;whiteSpace=wrap;html=1;" vertex="1" parent="1">
          <mxGeometry x="350" y="360" width="90" height="60" as="geometry" />
        </mxCell>
        <mxCell id="EZBdUAOa5AHeZ3UiyKXo-5" value="" style="endArrow=classic;startArrow=classic;html=1;rounded=0;entryX=0;entryY=0.5;entryDx=0;entryDy=0;" edge="1" parent="1" target="EZBdUAOa5AHeZ3UiyKXo-3">
          <mxGeometry width="50" height="50" relative="1" as="geometry">
            <mxPoint x="300" y="250" as="sourcePoint" />
            <mxPoint x="400" y="290" as="targetPoint" />
          </mxGeometry>
        </mxCell>
        <mxCell id="EZBdUAOa5AHeZ3UiyKXo-6" value="" style="endArrow=classic;startArrow=classic;html=1;rounded=0;entryX=0;entryY=0.5;entryDx=0;entryDy=0;" edge="1" parent="1" target="EZBdUAOa5AHeZ3UiyKXo-4">
          <mxGeometry width="50" height="50" relative="1" as="geometry">
            <mxPoint x="300" y="350" as="sourcePoint" />
            <mxPoint x="390" y="280" as="targetPoint" />
          </mxGeometry>
        </mxCell>
        <mxCell id="EZBdUAOa5AHeZ3UiyKXo-7" value="Laser Sender" style="rounded=1;whiteSpace=wrap;html=1;" vertex="1" parent="1">
          <mxGeometry x="480" y="280" width="90" height="60" as="geometry" />
        </mxCell>
        <mxCell id="EZBdUAOa5AHeZ3UiyKXo-9" value="" style="endArrow=classic;startArrow=none;html=1;rounded=0;entryX=0;entryY=0.5;entryDx=0;entryDy=0;startFill=0;" edge="1" parent="1" target="EZBdUAOa5AHeZ3UiyKXo-7">
          <mxGeometry width="50" height="50" relative="1" as="geometry">
            <mxPoint x="300" y="310" as="sourcePoint" />
            <mxPoint x="360" y="280" as="targetPoint" />
          </mxGeometry>
        </mxCell>
        <mxCell id="EZBdUAOa5AHeZ3UiyKXo-11" value="" style="endArrow=classic;startArrow=none;html=1;rounded=0;exitX=1;exitY=0.5;exitDx=0;exitDy=0;startFill=0;fontColor=#B85450;strokeColor=#B85450;dashed=1;" edge="1" parent="1" source="EZBdUAOa5AHeZ3UiyKXo-7">
          <mxGeometry width="50" height="50" relative="1" as="geometry">
            <mxPoint x="310" y="320" as="sourcePoint" />
            <mxPoint x="640" y="310" as="targetPoint" />
          </mxGeometry>
        </mxCell>
        <mxCell id="EZBdUAOa5AHeZ3UiyKXo-13" value="Photo Receiver" style="rounded=1;whiteSpace=wrap;html=1;" vertex="1" parent="1">
          <mxGeometry x="480" y="360" width="90" height="60" as="geometry" />
        </mxCell>
        <mxCell id="EZBdUAOa5AHeZ3UiyKXo-15" value="" style="endArrow=classic;startArrow=none;html=1;rounded=0;exitX=0;exitY=0.5;exitDx=0;exitDy=0;entryX=1;entryY=0.5;entryDx=0;entryDy=0;startFill=0;" edge="1" parent="1" source="EZBdUAOa5AHeZ3UiyKXo-13" target="EZBdUAOa5AHeZ3UiyKXo-4">
          <mxGeometry width="50" height="50" relative="1" as="geometry">
            <mxPoint x="610" y="400" as="sourcePoint" />
            <mxPoint x="580" y="400" as="targetPoint" />
          </mxGeometry>
        </mxCell>
        <mxCell id="EZBdUAOa5AHeZ3UiyKXo-16" value="" style="endArrow=classic;html=1;rounded=0;entryX=1;entryY=0.5;entryDx=0;entryDy=0;strokeColor=#B85450;dashed=1;" edge="1" parent="1">
          <mxGeometry width="50" height="50" relative="1" as="geometry">
            <mxPoint x="640" y="390" as="sourcePoint" />
            <mxPoint x="570" y="390" as="targetPoint" />
          </mxGeometry>
        </mxCell>
        <mxCell id="EZBdUAOa5AHeZ3UiyKXo-18" value="Target" style="rounded=0;whiteSpace=wrap;html=1;textDirection=vertical-rl;rotation=-180;" vertex="1" parent="1">
          <mxGeometry x="640" y="290" width="30" height="120" as="geometry" />
        </mxCell>
        <mxCell id="EZBdUAOa5AHeZ3UiyKXo-20" value="" style="curved=1;endArrow=classic;html=1;rounded=0;exitX=0.995;exitY=0.09;exitDx=0;exitDy=0;exitPerimeter=0;entryX=0;entryY=0.25;entryDx=0;entryDy=0;" edge="1" parent="1" source="EZBdUAOa5AHeZ3UiyKXo-2" target="EZBdUAOa5AHeZ3UiyKXo-3">
          <mxGeometry width="50" height="50" relative="1" as="geometry">
            <mxPoint x="400" y="370" as="sourcePoint" />
            <mxPoint x="450" y="320" as="targetPoint" />
            <Array as="points">
              <mxPoint x="330" y="240" />
              <mxPoint x="310" y="180" />
            </Array>
          </mxGeometry>
        </mxCell>
        <mxCell id="EZBdUAOa5AHeZ3UiyKXo-21" value="&lt;font style=&quot;font-size: 10px;&quot;&gt;variable length cable&lt;/font&gt;" style="text;html=1;align=center;verticalAlign=middle;whiteSpace=wrap;rounded=0;rotation=-20;" vertex="1" parent="1">
          <mxGeometry x="290" y="160" width="60" height="30" as="geometry" />
        </mxCell>
        <mxCell id="EZBdUAOa5AHeZ3UiyKXo-22" value="&lt;font style=&quot;font-size: 10px;&quot;&gt;variable distance&lt;/font&gt;" style="text;html=1;align=center;verticalAlign=middle;whiteSpace=wrap;rounded=0;rotation=0;" vertex="1" parent="1">
          <mxGeometry x="580" y="400" width="50" height="30" as="geometry" />
        </mxCell>
        <mxCell id="EZBdUAOa5AHeZ3UiyKXo-23" value="" style="endArrow=classic;html=1;rounded=0;entryX=0.25;entryY=0;entryDx=0;entryDy=0;" edge="1" parent="1" target="EZBdUAOa5AHeZ3UiyKXo-2">
          <mxGeometry width="50" height="50" relative="1" as="geometry">
            <mxPoint x="240" y="190" as="sourcePoint" />
            <mxPoint x="450" y="320" as="targetPoint" />
          </mxGeometry>
        </mxCell>
        <mxCell id="EZBdUAOa5AHeZ3UiyKXo-24" value="USB" style="text;html=1;align=center;verticalAlign=middle;whiteSpace=wrap;rounded=0;rotation=0;" vertex="1" parent="1">
          <mxGeometry x="210" y="160" width="60" height="30" as="geometry" />
        </mxCell>
      </root>
    </mxGraphModel>
  </diagram>
</mxfile>
